<svg width="36" height="36" viewBox="0 0 36 36" fill="none" xmlns="http://www.w3.org/2000/svg">
<path d="M18 22.5C13.2449 22.5 9.01622 24.796 6.32401 28.359C5.74458 29.1258 5.45486 29.5092 5.46434 30.0274C5.47166 30.4278 5.72306 30.9328 6.03807 31.18C6.4458 31.5 7.01082 31.5 8.14087 31.5H27.8592C28.9892 31.5 29.5542 31.5 29.962 31.18C30.277 30.9328 30.5284 30.4278 30.5357 30.0274C30.5452 29.5092 30.2555 29.1258 29.676 28.359C26.9838 24.796 22.7551 22.5 18 22.5Z" stroke="#B0C8FF" stroke-width="3" stroke-linecap="round" stroke-linejoin="round"/>
<path d="M18 18C21.7279 18 24.75 14.9779 24.75 11.25C24.75 7.52208 21.7279 4.5 18 4.5C14.2721 4.5 11.25 7.52208 11.25 11.25C11.25 14.9779 14.2721 18 18 18Z" stroke="#B0C8FF" stroke-width="3" stroke-linecap="round" stroke-linejoin="round"/>
</svg>
