<svg width="36" height="36" viewBox="0 0 36 36" fill="none" xmlns="http://www.w3.org/2000/svg">
<path d="M19.4735 4.14612C18.9465 3.73624 18.683 3.5313 18.392 3.45252C18.1353 3.38301 17.8647 3.38301 17.608 3.45252C17.317 3.5313 17.0535 3.73624 16.5265 4.14612L6.35309 12.0588C5.67303 12.5877 5.33301 12.8522 5.08804 13.1834C4.87105 13.4768 4.7094 13.8073 4.61104 14.1587C4.5 14.5554 4.5 14.9862 4.5 15.8477V26.7001C4.5 28.3803 4.5 29.2203 4.82698 29.8621C5.1146 30.4266 5.57354 30.8855 6.13803 31.1731C6.77976 31.5001 7.61984 31.5001 9.3 31.5001H12.3C12.72 31.5001 12.9301 31.5001 13.0905 31.4184C13.2316 31.3464 13.3463 31.2317 13.4183 31.0906C13.5 30.9302 13.5 30.7201 13.5 30.3001V20.4001C13.5 19.56 13.5 19.14 13.6635 18.8191C13.8073 18.5369 14.0368 18.3074 14.319 18.1636C14.6399 18.0001 15.0599 18.0001 15.9 18.0001H20.1C20.9401 18.0001 21.3601 18.0001 21.681 18.1636C21.9632 18.3074 22.1927 18.5369 22.3365 18.8191C22.5 19.14 22.5 19.56 22.5 20.4001V30.3001C22.5 30.7201 22.5 30.9302 22.5817 31.0906C22.6537 31.2317 22.7684 31.3464 22.9095 31.4184C23.0699 31.5001 23.28 31.5001 23.7 31.5001H26.7C28.3802 31.5001 29.2202 31.5001 29.862 31.1731C30.4265 30.8855 30.8854 30.4266 31.173 29.8621C31.5 29.2203 31.5 28.3803 31.5 26.7001V15.8477C31.5 14.9862 31.5 14.5554 31.389 14.1587C31.2906 13.8073 31.129 13.4768 30.912 13.1834C30.667 12.8522 30.327 12.5877 29.6469 12.0588L19.4735 4.14612Z" stroke="#B0C8FF" stroke-width="3" stroke-linecap="round" stroke-linejoin="round"/>
</svg>
