<svg width="76" height="24" viewBox="0 0 76 24" fill="none" xmlns="http://www.w3.org/2000/svg">
<path d="M68.1851 3.64777C72.1749 3.64777 75.0169 6.70714 75.0171 10.8118C75.0171 11.1201 75.0171 11.4792 74.9692 11.8148L74.9644 11.847H63.8569C64.1316 14.1378 65.7973 15.8352 68.1851 15.8353C70.0286 15.8353 71.4615 14.9842 71.9526 13.8851L71.9624 13.8636H74.5317L74.5161 13.9114C73.7738 16.282 71.3101 17.9769 68.1851 17.9769C64.1953 17.9768 61.3296 14.9168 61.3296 10.8118C61.3297 6.70699 64.1954 3.6478 68.1851 3.64777ZM68.1851 5.78937C65.7733 5.7894 64.13 7.46336 63.856 9.77765H72.5376C72.2403 7.44008 70.597 5.78937 68.1851 5.78937Z" fill="#3370FF" stroke="#3370FF" stroke-width="0.0742424"/>
<path d="M53.3645 3.64777C57.3543 3.64777 60.1964 6.70714 60.1965 10.8118C60.1965 11.1201 60.1966 11.4792 60.1487 11.8148L60.1438 11.847H49.0364C49.3111 14.1378 50.9767 15.8352 53.3645 15.8353C55.208 15.8353 56.641 14.9842 57.1321 13.8851L57.1418 13.8636H59.7112L59.6956 13.9114C58.9533 16.282 56.4895 17.9769 53.3645 17.9769C49.3748 17.9768 46.509 14.9168 46.509 10.8118C46.5092 6.70699 49.3749 3.6478 53.3645 3.64777ZM53.3645 5.78937C50.9528 5.7894 49.3095 7.46336 49.0354 9.77765H57.717C57.4198 7.44008 55.7764 5.78937 53.3645 5.78937Z" fill="#3370FF" stroke="#3370FF" stroke-width="0.0742424"/>
<path d="M46.7739 6.30792L46.7212 6.28448C46.2043 6.04955 45.5446 5.90753 44.7173 5.90753C41.9595 5.90753 40.0269 8.1229 40.0269 10.5745V17.6439H37.5054V3.98077H40.0269V5.97882C40.6779 4.95931 42.3041 3.64786 44.8833 3.64777C45.7165 3.64777 46.2679 3.71887 46.7485 3.88702L46.7739 3.89581V6.30792Z" fill="#3370FF" stroke="#3370FF" stroke-width="0.0742424"/>
<path d="M28.8774 3.64777C32.7486 3.64777 35.638 6.73107 35.6382 10.8118C35.6382 14.8927 32.7487 17.9769 28.8774 17.9769C26.4715 17.9768 24.8254 16.854 24.0923 15.7142V23.4173H21.5708V3.98077H24.0923V5.90948C24.8256 4.7698 26.4718 3.64785 28.8774 3.64777ZM28.6636 5.88409C25.9312 5.88427 24.0446 8.0026 24.0444 10.8118C24.0444 13.6212 25.9311 15.7404 28.6636 15.7405C30.0192 15.7405 31.1435 15.2101 31.9292 14.3304C32.7152 13.4502 33.1646 12.2176 33.1646 10.8118C33.1645 9.4062 32.7152 8.17441 31.9292 7.29425C31.1435 6.41444 30.0193 5.88409 28.6636 5.88409Z" fill="#3370FF" stroke="#3370FF" stroke-width="0.0742424"/>
<g clip-path="url(#clip0_2454_1237)">
<path d="M11.4177 15.7789C13.5714 13.6252 13.5715 10.1333 11.4177 7.97963L0.169277 19.2281L4.06892 23.1277L11.4177 15.7789Z" fill="#3370FF"/>
<path d="M12.9178 4.30054L11.8726 3.25527C9.23013 0.612818 4.94586 0.612818 2.3034 3.25528C-0.339054 5.89773 -0.339055 10.182 2.3034 12.8245L3.34866 13.8697L12.9178 4.30054Z" fill="#3370FF"/>
</g>
<defs>
<clipPath id="clip0_2454_1237">
<rect width="13.5" height="22.5" fill="white" transform="translate(0 0.620056)"/>
</clipPath>
</defs>
</svg>
