<svg width="393" height="666" viewBox="0 0 393 666" fill="none" xmlns="http://www.w3.org/2000/svg">
<path d="M530.896 559.844L531.632 966.597C531.632 975.284 531.632 988.281 531.632 987.499C531.632 987.499 537.412 1002 530.91 1002H-104.454C-104.454 1002 -104.999 985.393 -104.999 966.944C-105.679 959.962 -106.762 563.937 -105.19 558.626C-103.618 553.316 -96.062 540.967 -92.8611 535.551C-71.8358 499.985 -38.6087 464.043 -0.707796 446.427C2.74096 444.819 10.1696 441.407 13.6396 440.946C42.9646 437.087 63.8058 446.979 93.0176 430.389C128.348 410.316 136.591 372.873 132.59 334.638C120.905 320.023 110.226 303.78 102.819 286.518C99.993 279.926 95.8786 263.293 92.1182 258.981C90.3408 256.949 87.1469 254.917 85.1003 252.545C72.2472 237.711 69.8253 215.853 78.2525 198.237C80.1079 194.363 83.9885 190.505 84.3638 186.086C85.7731 169.411 83.6627 148.446 84.031 131.063C84.8595 91.5669 89.3635 58.4225 120.87 31.2612C163.012 -5.06947 252.432 -5.65716 297.436 25.3843C351.879 62.94 338.941 128.854 340.471 186.277C350.938 204.446 356.22 220.236 347.39 240.763C343.389 250.067 339.147 252.226 332.95 258.896C329.799 262.281 324.304 281.767 321.62 287.927C314.106 305.168 303.986 321.156 292.429 335.919C292.634 348.551 291.162 362.047 293.173 374.48C299.05 410.861 330.38 438.525 366.978 440.883C380.872 441.782 399.036 439.013 412.123 441.06C420.175 442.32 438.46 452.969 445.739 457.72C483.492 482.375 511.252 519.768 530.91 559.844H530.896Z" stroke="#8AADFF" stroke-width="6" stroke-linecap="round" stroke-dasharray="5 10"/>
</svg>
