<svg width="108" height="40" viewBox="0 0 108 40" fill="none" xmlns="http://www.w3.org/2000/svg">
<path d="M94.1539 0.360779C102.134 0.360779 107.818 6.48019 107.818 14.6899C107.818 15.3066 107.818 16.0245 107.722 16.6957L107.713 16.7592H85.4957C86.045 21.341 89.3783 24.7357 94.1539 24.7358C97.841 24.7358 100.707 23.0346 101.689 20.8364L101.709 20.7924H106.846L106.816 20.8891C105.331 25.6299 100.404 29.018 94.1539 29.018C86.1746 29.0179 80.4431 22.8997 80.443 14.6899C80.443 6.47988 86.1745 0.360845 94.1539 0.360779ZM94.1539 4.64301C89.3308 4.64307 86.0442 7.99149 85.4957 12.6196H102.859C102.264 7.94493 98.9774 4.64301 94.1539 4.64301Z" fill="white" stroke="white" stroke-width="0.148485"/>
<path d="M64.5125 0.360779C72.4924 0.360779 78.1766 6.48019 78.1766 14.6899C78.1766 15.3066 78.1768 16.0245 78.0809 16.6957L78.0711 16.7592H55.8543C56.4036 21.341 59.7369 24.7357 64.5125 24.7358C68.1996 24.7358 71.0655 23.0346 72.0477 20.8364L72.0672 20.7924H77.2049L77.1746 20.8891C75.6899 25.6299 70.7624 29.018 64.5125 29.018C56.5332 29.0179 50.8018 22.8997 50.8016 14.6899C50.8016 6.47988 56.5331 0.360845 64.5125 0.360779ZM64.5125 4.64301C59.6894 4.64306 56.4029 7.99149 55.8543 12.6196H73.2176C72.6227 7.94493 69.336 4.64301 64.5125 4.64301Z" fill="white" stroke="white" stroke-width="0.148485"/>
<path d="M51.3316 5.68207L51.2261 5.63422C50.1923 5.16434 48.8728 4.88031 47.2183 4.88031C41.7027 4.88031 37.8375 9.31105 37.8374 14.2143V28.353H32.7945V1.02582H37.8374V5.01703C39.1414 2.97853 42.3961 0.360779 47.5513 0.360779C49.2179 0.360804 50.3203 0.503758 51.2818 0.840271L51.3316 0.857849V5.68207Z" fill="white" stroke="white" stroke-width="0.148485"/>
<path d="M15.54 0.360779C23.2824 0.360994 29.0605 6.52819 29.0605 14.6899C29.0604 22.8514 23.2823 29.0178 15.54 29.018C10.7313 29.018 7.43667 26.7785 5.96875 24.5004V39.8989H0.925781V1.02582H5.96875V4.87738C7.43696 2.59959 10.7319 0.360779 15.54 0.360779ZM15.1123 4.83344C9.64703 4.83344 5.87305 9.07087 5.87305 14.6899C5.8732 20.3087 9.64714 24.5463 15.1123 24.5463C17.8236 24.5462 20.0722 23.4856 21.6436 21.726C23.2155 19.9656 24.1132 17.5013 24.1133 14.6899C24.1133 11.8785 23.2154 9.41417 21.6436 7.65375C20.0722 5.89409 17.8237 4.83351 15.1123 4.83344Z" fill="white" stroke="white" stroke-width="0.148485"/>
</svg>
