<svg width="20" height="20" viewBox="0 0 20 20" fill="none" xmlns="http://www.w3.org/2000/svg">
<path d="M9.40217 2.87777C9.59424 2.48866 9.69028 2.2941 9.82065 2.23194C9.93408 2.17785 10.0659 2.17785 10.1793 2.23194C10.3097 2.2941 10.4057 2.48866 10.5978 2.87777L12.42 6.56941C12.4767 6.68429 12.5051 6.74173 12.5465 6.78632C12.5832 6.82581 12.6272 6.8578 12.6761 6.88053C12.7313 6.9062 12.7946 6.91546 12.9214 6.93399L16.9975 7.52977C17.4267 7.5925 17.6413 7.62387 17.7406 7.72871C17.827 7.81992 17.8677 7.94526 17.8512 8.06982C17.8323 8.21299 17.6769 8.36433 17.3662 8.66699L14.4178 11.5387C14.3259 11.6282 14.28 11.673 14.2503 11.7262C14.2241 11.7734 14.2072 11.8252 14.2007 11.8788C14.1934 11.9393 14.2042 12.0025 14.2259 12.129L14.9216 16.1851C14.995 16.6129 15.0317 16.8268 14.9627 16.9538C14.9027 17.0642 14.7961 17.1417 14.6725 17.1646C14.5305 17.1909 14.3384 17.0899 13.9542 16.8879L10.3103 14.9715C10.1967 14.9118 10.14 14.882 10.0802 14.8702C10.0272 14.8599 9.97274 14.8599 9.91979 14.8702C9.85998 14.882 9.80321 14.9118 9.68967 14.9715L6.04573 16.8879C5.66156 17.0899 5.46947 17.1909 5.32744 17.1646C5.20386 17.1417 5.09723 17.0642 5.03724 16.9538C4.96829 16.8268 5.00498 16.6129 5.07835 16.1851L5.77403 12.129C5.79572 12.0025 5.80656 11.9393 5.79923 11.8788C5.79273 11.8252 5.77589 11.7734 5.74963 11.7262C5.71998 11.673 5.67402 11.6282 5.58211 11.5387L2.63376 8.66699C2.32301 8.36433 2.16764 8.21299 2.14873 8.06982C2.13228 7.94526 2.17292 7.81992 2.25933 7.72871C2.35866 7.62387 2.57327 7.5925 3.0025 7.52977L7.07855 6.93399C7.20531 6.91546 7.26869 6.9062 7.32389 6.88053C7.37276 6.8578 7.41676 6.82581 7.45345 6.78632C7.49488 6.74173 7.52323 6.68429 7.57994 6.56941L9.40217 2.87777Z" stroke="#9D9FA5" stroke-width="1.66667" stroke-linecap="round" stroke-linejoin="round"/>
</svg>
