<svg width="36" height="36" viewBox="0 0 36 36" fill="none" xmlns="http://www.w3.org/2000/svg">
<path d="M18 22.5C13.2448 22.5 9.01616 24.796 6.32395 28.3589C5.74452 29.1258 5.4548 29.5092 5.46428 30.0274C5.4716 30.4278 5.723 30.9328 6.03801 31.18C6.44574 31.5 7.01076 31.5 8.14081 31.5H27.8591C28.9892 31.5 29.5542 31.5 29.9619 31.18C30.2769 30.9328 30.5283 30.4278 30.5356 30.0274C30.5451 29.5092 30.2554 29.1258 29.676 28.3589C26.9838 24.7959 22.7551 22.5 18 22.5Z" fill="#3370FF"/>
<path d="M18 18C21.7279 18 24.75 14.9779 24.75 11.25C24.75 7.52208 21.7279 4.5 18 4.5C14.272 4.5 11.25 7.52208 11.25 11.25C11.25 14.9779 14.272 18 18 18Z" fill="#3370FF"/>
<path d="M18 22.5C13.2448 22.5 9.01616 24.796 6.32395 28.3589C5.74452 29.1258 5.4548 29.5092 5.46428 30.0274C5.4716 30.4278 5.723 30.9328 6.03801 31.18C6.44574 31.5 7.01076 31.5 8.14081 31.5H27.8591C28.9892 31.5 29.5542 31.5 29.9619 31.18C30.2769 30.9328 30.5283 30.4278 30.5356 30.0274C30.5451 29.5092 30.2554 29.1258 29.676 28.3589C26.9838 24.7959 22.7551 22.5 18 22.5Z" stroke="#3370FF" stroke-width="3" stroke-linecap="round" stroke-linejoin="round"/>
<path d="M18 18C21.7279 18 24.75 14.9779 24.75 11.25C24.75 7.52208 21.7279 4.5 18 4.5C14.272 4.5 11.25 7.52208 11.25 11.25C11.25 14.9779 14.272 18 18 18Z" stroke="#3370FF" stroke-width="3" stroke-linecap="round" stroke-linejoin="round"/>
</svg>
